<svg width="117" height="17" viewBox="0 0 117 17" fill="none" xmlns="http://www.w3.org/2000/svg">
<path d="M2.96 8.284V13H0.746V0.399999C1.37 0.399999 2.048 0.393999 2.78 0.381999C3.512 0.37 4.112 0.364 4.58 0.364C7.628 0.364 9.152 1.66 9.152 4.252C9.152 5.212 8.906 6.004 8.414 6.628C7.922 7.228 7.358 7.636 6.722 7.852L10.664 13H7.982L4.508 8.284H2.96ZM4.472 2.434C4.412 2.434 4.316 2.44 4.184 2.452C4.052 2.452 3.866 2.458 3.626 2.47C3.386 2.47 3.164 2.47 2.96 2.47V6.214H4.4C5.108 6.214 5.684 6.04 6.128 5.692C6.584 5.344 6.812 4.87 6.812 4.27C6.812 3.046 6.032 2.434 4.472 2.434ZM17.6154 10.732L18.2094 12.19C17.4054 12.862 16.3734 13.198 15.1134 13.198C13.8174 13.198 12.7614 12.808 11.9454 12.028C11.1534 11.26 10.7574 10.234 10.7574 8.95C10.7574 7.75 11.1474 6.742 11.9274 5.926C12.7074 5.11 13.7454 4.702 15.0414 4.702C16.1094 4.702 17.0154 5.056 17.7594 5.764C18.5034 6.472 18.8754 7.372 18.8754 8.464C18.8754 8.944 18.8334 9.316 18.7494 9.58H12.8994C12.9834 10.168 13.2414 10.63 13.6734 10.966C14.1174 11.302 14.6694 11.47 15.3294 11.47C16.2294 11.47 16.9914 11.224 17.6154 10.732ZM14.9514 6.43C13.7754 6.43 13.0674 7.018 12.8274 8.194H16.8054C16.8174 7.678 16.6494 7.258 16.3014 6.934C15.9654 6.598 15.5154 6.43 14.9514 6.43ZM28.2659 16.6H26.1959V12.586C25.5719 12.994 24.9059 13.198 24.1979 13.198C22.9139 13.198 21.8879 12.814 21.1199 12.046C20.3639 11.266 19.9859 10.234 19.9859 8.95C19.9859 7.738 20.4239 6.73 21.2999 5.926C22.1879 5.11 23.2979 4.702 24.6299 4.702C26.0219 4.702 27.2339 5.026 28.2659 5.674V16.6ZM24.4679 11.272C25.1639 11.272 25.7399 11.026 26.1959 10.534V7.042C25.6559 6.778 25.1279 6.646 24.6119 6.646C23.8679 6.646 23.2799 6.874 22.8479 7.33C22.4159 7.774 22.1999 8.344 22.1999 9.04C22.1999 9.688 22.4039 10.222 22.8119 10.642C23.2319 11.062 23.7839 11.272 24.4679 11.272ZM35.8006 4.9H37.8706V13H35.8006V12.01C35.1526 12.802 34.2886 13.198 33.2086 13.198C32.3446 13.198 31.6546 12.91 31.1386 12.334C30.6226 11.758 30.3646 10.93 30.3646 9.85V4.9H32.4346V9.418C32.4346 10.654 32.9506 11.272 33.9826 11.272C34.6906 11.272 35.2966 10.942 35.8006 10.282V4.9ZM46.5314 10.732L47.1254 12.19C46.3214 12.862 45.2894 13.198 44.0294 13.198C42.7334 13.198 41.6774 12.808 40.8614 12.028C40.0694 11.26 39.6734 10.234 39.6734 8.95C39.6734 7.75 40.0634 6.742 40.8434 5.926C41.6234 5.11 42.6614 4.702 43.9574 4.702C45.0254 4.702 45.9314 5.056 46.6754 5.764C47.4194 6.472 47.7914 7.372 47.7914 8.464C47.7914 8.944 47.7494 9.316 47.6654 9.58H41.8154C41.8994 10.168 42.1574 10.63 42.5894 10.966C43.0334 11.302 43.5854 11.47 44.2454 11.47C45.1454 11.47 45.9074 11.224 46.5314 10.732ZM43.8674 6.43C42.6914 6.43 41.9834 7.018 41.7434 8.194H45.7214C45.7334 7.678 45.5654 7.258 45.2174 6.934C44.8814 6.598 44.4314 6.43 43.8674 6.43ZM49.1886 7.168C49.1886 6.412 49.4646 5.812 50.0166 5.368C50.5686 4.924 51.2826 4.702 52.1586 4.702C53.4786 4.702 54.5046 5.044 55.2366 5.728L54.4626 7.204C53.8026 6.688 53.0706 6.43 52.2666 6.43C51.9786 6.43 51.7386 6.502 51.5466 6.646C51.3546 6.778 51.2586 6.94 51.2586 7.132C51.2586 7.528 51.7686 7.858 52.7886 8.122C53.1606 8.206 53.4906 8.302 53.7786 8.41C54.0666 8.506 54.3606 8.65 54.6606 8.842C54.9726 9.022 55.2126 9.262 55.3806 9.562C55.5486 9.862 55.6326 10.21 55.6326 10.606C55.6326 11.398 55.3326 12.028 54.7326 12.496C54.1446 12.964 53.3526 13.198 52.3566 13.198C51.6486 13.198 50.9586 13.048 50.2866 12.748C49.6026 12.436 49.1646 12.124 48.9726 11.812L49.9806 10.462C50.2086 10.738 50.5866 10.972 51.1146 11.164C51.6546 11.368 52.1166 11.47 52.5006 11.47C52.9686 11.518 53.2986 11.368 53.4906 11.02C53.6826 10.66 53.5566 10.366 53.1126 10.138C52.9326 10.042 52.6506 9.94 52.2666 9.832C51.8946 9.724 51.5466 9.616 51.2226 9.508C50.9106 9.388 50.5866 9.238 50.2506 9.058C49.9266 8.878 49.6686 8.632 49.4766 8.32C49.2846 7.996 49.1886 7.612 49.1886 7.168ZM57.2767 9.922V2.65H59.3467V4.9H61.9567V6.844H59.3467V9.796C59.3467 10.768 59.6707 11.254 60.3187 11.254C60.7267 11.254 61.1407 11.098 61.5607 10.786L62.1907 12.388C61.5307 12.916 60.7327 13.18 59.7967 13.18C58.9207 13.18 58.2787 12.916 57.8707 12.388C57.4747 11.848 57.2767 11.026 57.2767 9.922ZM68.6494 13H68.4964V1.1H68.6834C69.1707 1.1 69.624 1.09433 70.0434 1.083C70.882 1.06033 71.3807 1.049 71.5394 1.049C72.684 1.049 73.6927 1.20767 74.5654 1.525C75.4494 1.831 76.152 2.26167 76.6734 2.817C77.1947 3.361 77.58 3.97867 77.8294 4.67C78.09 5.35 78.2204 6.08667 78.2204 6.88C78.2204 8.67067 77.6254 10.144 76.4354 11.3C75.2567 12.456 73.5794 13.034 71.4034 13.034C70.916 13.034 70.4684 13.0283 70.0604 13.017C69.6524 13.0057 69.182 13 68.6494 13ZM71.5054 1.933C71.256 1.933 70.8877 1.94433 70.4004 1.967C69.9244 1.97833 69.6014 1.984 69.4314 1.984V12.116C69.8054 12.116 70.1567 12.1217 70.4854 12.133C70.814 12.133 71.052 12.1387 71.1994 12.15C71.3467 12.15 71.426 12.15 71.4374 12.15C73.2847 12.15 74.7127 11.6627 75.7214 10.688C76.73 9.702 77.2344 8.43267 77.2344 6.88C77.2344 5.418 76.7527 4.228 75.7894 3.31C74.8147 2.392 73.3867 1.933 71.5054 1.933ZM86.4555 11.385L86.7445 12.065C86.0532 12.7903 85.1125 13.153 83.9225 13.153C82.6985 13.153 81.7182 12.7903 80.9815 12.065C80.2335 11.3397 79.8595 10.3763 79.8595 9.175C79.8595 8.019 80.1995 7.067 80.8795 6.319C81.5709 5.571 82.5229 5.197 83.7355 5.197C84.7215 5.197 85.5489 5.51433 86.2175 6.149C86.8749 6.77233 87.2035 7.60533 87.2035 8.648C87.2035 8.92 87.1865 9.158 87.1525 9.362H80.8455C80.8795 10.28 81.1799 11.0053 81.7465 11.538C82.3132 12.0593 83.0555 12.32 83.9735 12.32C85.0389 12.32 85.8662 12.0083 86.4555 11.385ZM83.6505 6.03C82.8345 6.03 82.1715 6.268 81.6615 6.744C81.1629 7.22 80.8739 7.849 80.7945 8.631H86.3025C86.2912 7.82633 86.0475 7.19167 85.5715 6.727C85.0955 6.26233 84.4552 6.03 83.6505 6.03ZM93.2796 10.994C93.2796 10.6427 93.1323 10.3593 92.8376 10.144C92.5543 9.92867 92.2029 9.75867 91.7836 9.634C91.3756 9.50933 90.9619 9.37333 90.5426 9.226C90.1233 9.06733 89.7663 8.82367 89.4716 8.495C89.1883 8.155 89.0466 7.73 89.0466 7.22C89.0466 6.608 89.2733 6.12067 89.7266 5.758C90.1799 5.384 90.7749 5.197 91.5116 5.197C92.5656 5.197 93.3646 5.48033 93.9086 6.047L93.5346 6.71C93.0133 6.22267 92.3446 5.979 91.5286 5.979C91.0753 5.979 90.7013 6.098 90.4066 6.336C90.1233 6.56267 89.9816 6.85167 89.9816 7.203C89.9816 7.56567 90.1233 7.866 90.4066 8.104C90.7013 8.33067 91.0526 8.512 91.4606 8.648C91.8799 8.77267 92.2993 8.90867 92.7186 9.056C93.1379 9.20333 93.4893 9.43567 93.7726 9.753C94.0673 10.0703 94.2146 10.4727 94.2146 10.96C94.2146 11.6513 93.9539 12.1897 93.4326 12.575C92.9226 12.9603 92.2653 13.153 91.4606 13.153C90.9619 13.153 90.4406 13.0397 89.8966 12.813C89.3866 12.5977 89.0353 12.3427 88.8426 12.048L89.3356 11.47C89.5509 11.7307 89.8739 11.946 90.3046 12.116C90.7466 12.286 91.1659 12.371 91.5626 12.371C92.0613 12.371 92.4693 12.252 92.7866 12.014C93.1153 11.7647 93.2796 11.4247 93.2796 10.994ZM97.7331 13H96.8491V5.35H97.7331V13ZM96.6961 2.375C96.6961 2.205 96.7584 2.069 96.8831 1.967C97.0077 1.865 97.1551 1.814 97.3251 1.814C97.4724 1.814 97.6027 1.87067 97.7161 1.984C97.8407 2.086 97.9031 2.21633 97.9031 2.375C97.9031 2.56767 97.8464 2.72067 97.7331 2.834C97.6311 2.94733 97.4951 3.004 97.3251 3.004C97.1437 3.004 96.9907 2.94733 96.8661 2.834C96.7527 2.72067 96.6961 2.56767 96.6961 2.375ZM99.7517 14.122C99.7517 13.544 99.9557 13.0567 100.364 12.66C100.772 12.2633 101.35 11.9857 102.098 11.827C101.928 11.623 101.843 11.3793 101.843 11.096C101.843 10.8127 101.939 10.5577 102.132 10.331C101.633 10.1157 101.242 9.79267 100.959 9.362C100.675 8.93133 100.534 8.444 100.534 7.9C100.534 7.118 100.811 6.472 101.367 5.962C101.922 5.452 102.653 5.197 103.56 5.197C104.285 5.197 104.925 5.38967 105.481 5.775H105.498L107.674 5.197V6.03L106.127 6.421C106.433 6.88567 106.586 7.37867 106.586 7.9C106.586 8.65933 106.302 9.30533 105.736 9.838C105.169 10.348 104.444 10.603 103.56 10.603C103.242 10.603 102.987 10.5803 102.795 10.535C102.693 10.6823 102.642 10.8693 102.642 11.096C102.642 11.3567 102.715 11.5607 102.863 11.708C103.293 11.6853 103.531 11.674 103.577 11.674C104.744 11.674 105.673 11.8893 106.365 12.32C107.056 12.7507 107.402 13.3513 107.402 14.122C107.402 14.8813 107.056 15.4707 106.365 15.89C105.673 16.3207 104.744 16.536 103.577 16.536C102.398 16.536 101.463 16.3263 100.772 15.907C100.092 15.4877 99.7517 14.8927 99.7517 14.122ZM100.653 14.122C100.653 14.6207 100.913 15.0117 101.435 15.295C101.967 15.5897 102.681 15.737 103.577 15.737C104.461 15.737 105.169 15.5897 105.702 15.295C106.234 15.0003 106.501 14.6093 106.501 14.122C106.501 13.6233 106.234 13.2267 105.702 12.932C105.18 12.626 104.472 12.473 103.577 12.473C102.693 12.473 101.984 12.6203 101.452 12.915C100.919 13.2097 100.653 13.612 100.653 14.122ZM102.03 6.54C101.633 6.90267 101.435 7.356 101.435 7.9C101.435 8.444 101.633 8.89733 102.03 9.26C102.426 9.62267 102.936 9.804 103.56 9.804C104.183 9.804 104.693 9.62267 105.09 9.26C105.486 8.89733 105.685 8.444 105.685 7.9C105.685 7.356 105.481 6.90267 105.073 6.54C104.676 6.17733 104.172 5.996 103.56 5.996C102.959 5.996 102.449 6.17733 102.03 6.54ZM110.075 13H109.191V5.35H110.075V6.421C110.392 6.06967 110.8 5.78067 111.299 5.554C111.809 5.32733 112.319 5.214 112.829 5.214C113.894 5.214 114.693 5.49167 115.226 6.047C115.758 6.60233 116.025 7.46367 116.025 8.631V13H115.141V8.801C115.141 6.965 114.302 6.047 112.625 6.047C112.137 6.047 111.661 6.16033 111.197 6.387C110.732 6.60233 110.358 6.88 110.075 7.22V13Z" fill="#2B2E34"/>
</svg>
